<?xml version="1.0" encoding="UTF-8"?>
<svg xmlns="http://www.w3.org/2000/svg" id="Layer_1" data-name="Layer 1" viewBox="0 0 24 24">
  <path d="M18.5,2H5.5C2.468,2,0,4.467,0,7.5v9c0,3.033,2.468,5.5,5.5,5.5h13c3.032,0,5.5-2.467,5.5-5.5V7.5c0-3.033-2.468-5.5-5.5-5.5Zm2.5,14.5c0,1.378-1.121,2.5-2.5,2.5H5.5c-1.379,0-2.5-1.122-2.5-2.5V7.5c0-1.378,1.121-2.5,2.5-2.5h13c1.379,0,2.5,1.122,2.5,2.5v9Zm-2-7c0,.829-.672,1.5-1.5,1.5h-1c-.828,0-1.5-.671-1.5-1.5s.672-1.5,1.5-1.5h1c.828,0,1.5,.671,1.5,1.5Zm0,5c0,.829-.672,1.5-1.5,1.5h-1c-.828,0-1.5-.671-1.5-1.5s.672-1.5,1.5-1.5h1c.828,0,1.5,.671,1.5,1.5Zm-5.5-2c0,.88-.262,1.694-.699,2.387l-2.508-2.508c-.188-.188-.293-.442-.293-.707v-3.551c2.002,.456,3.5,2.239,3.5,4.38Zm-4.914,1l2.801,2.802c-.903,.569-2.012,.842-3.203,.624-1.852-.339-3.349-1.862-3.631-3.724-.369-2.443,1.229-4.576,3.447-5.081v3.965c0,.53,.211,1.039,.586,1.414Z"/>
</svg>
