<?xml version="1.0" encoding="UTF-8"?>
<svg xmlns="http://www.w3.org/2000/svg" id="Layer_1" data-name="Layer 1" viewBox="0 0 24 24">
  <path d="m15,19.5v3c0,.828-.672,1.5-1.5,1.5h-3c-.828,0-1.5-.672-1.5-1.5v-3c0-.828.672-1.5,1.5-1.5h3c.828,0,1.5.672,1.5,1.5Zm-10.5-1.5H1.5c-.828,0-1.5.672-1.5,1.5v3c0,.828.672,1.5,1.5,1.5h3c.828,0,1.5-.672,1.5-1.5v-3c0-.828-.672-1.5-1.5-1.5Zm18,0h-3c-.828,0-1.5.672-1.5,1.5v3c0,.828.672,1.5,1.5,1.5h3c.828,0,1.5-.672,1.5-1.5v-3c0-.828-.672-1.5-1.5-1.5ZM1.5,15.5c0-1.93,1.57-3.5,3.5-3.5h5.5v-1.757c-.518-.184-.992-.459-1.404-.808l-.224.131c-.238.139-.498.205-.756.205-.516,0-1.017-.266-1.296-.743-.418-.715-.177-1.634.538-2.052l.222-.13c-.052-.274-.08-.557-.08-.846s.028-.572.08-.846l-.222-.13c-.715-.418-.956-1.336-.538-2.052.419-.716,1.338-.954,2.052-.538l.224.131c.411-.348.886-.624,1.404-.808v-.257c0-.829.672-1.5,1.5-1.5s1.5.671,1.5,1.5v.257c.518.184.992.459,1.404.808l.224-.131c.714-.418,1.632-.179,2.052.538.418.715.177,1.634-.538,2.052l-.222.13c.052.274.08.557.08.846s-.028.572-.08.846l.222.13c.715.418.956,1.336.538,2.052-.279.478-.781.743-1.296.743-.258,0-.518-.066-.756-.205l-.224-.131c-.411.348-.886.624-1.404.808v1.757h5.5c1.93,0,3.5,1.57,3.5,3.5,0,.828-.672,1.5-1.5,1.5s-1.5-.672-1.5-1.5c0-.275-.225-.5-.5-.5h-5.5v.5c0,.828-.672,1.5-1.5,1.5s-1.5-.672-1.5-1.5v-.5h-5.5c-.275,0-.5.225-.5.5,0,.828-.672,1.5-1.5,1.5s-1.5-.672-1.5-1.5ZM13.5,6c0-.827-.673-1.5-1.5-1.5s-1.5.673-1.5,1.5.673,1.5,1.5,1.5,1.5-.673,1.5-1.5Z"/>
</svg>
