<?xml version="1.0" encoding="UTF-8"?>
<svg xmlns="http://www.w3.org/2000/svg" id="Layer_1" data-name="Layer 1" viewBox="0 0 24 24">
  <path d="m6.671,12c-.555,0-1.112-.211-1.536-.635l-1.443-1.386,2.079-2.163.891.856,2.187-2.142,2.099,2.144-2.759,2.702c-.415.416-.965.624-1.517.624Zm-3.671,8.5V5h5v-1.5c0-.276.224-.5.5-.5h3c.276,0,.5.224.5.5v1.5h5v7h3V2h-5.338c-.562-1.182-1.769-2-3.162-2h-3c-1.394,0-2.599.818-3.162,2H0v18.5c0,1.93,1.57,3.5,3.5,3.5h7.5v-3H3.5c-.276,0-.5-.225-.5-.5Zm12-11.5h-1.527l-3.063,3h4.591v-3Zm-9.866,8.364c.409.41.954.636,1.533.636s1.124-.226,1.521-.624l2.759-2.702-2.099-2.143-2.187,2.141-.891-.856-2.079,2.164,1.442,1.385Zm18.866-1.364v8h-11v-8c0-1.105.895-2,2-2h7c1.105,0,2,.895,2,2Zm-4,1h-3v2h3v-2Z"/>
</svg>
